# xmcd
#
# Track frame offsets:
#	150
#	25663
#	41009
#	72945
#	88906
#	102681
#	117987
#	129420
#	149242
#	169286
#	186260
#	209044
#	231710
#	256824
#	273898
#	293435
#
# Disc length: 4074 seconds
# Revision: 1
# Processed by: cddbd v1.5.2PL0 Copyright (c) Steve Scherf et al.
# Submitted via: dBpowerAMP V12.0
#
DISCID=010fe810
DTITLE=Krüger Brothers - Best of the Krüger Brothers
DYEAR=2012
DGENRE=Country
TTITLE0=Watches the Clouds Roll By
TTITLE1=Black Mountain Rag
TTITLE2=People Get Ready
TTITLE3=Carolina In the Fall
TTITLE4=The Plan
TTITLE5=Cork Harbor
TTITLE6=The Lights In Our Village
TTITLE7=Forever and a Day
TTITLE8=Beautiful Nothing
TTITLE9=Choices
TTITLE10=The New Country
TTITLE11=Winterport
TTITLE12=Long Black Veil
TTITLE13=Alabama Bound
TTITLE14=Honey Babe Blues
TTITLE15=Sweden - Running Down the Mountain
EXTD=
EXTT0=
EXTT1=
EXTT2=
EXTT3=
EXTT4=
EXTT5=
EXTT6=
EXTT7=
EXTT8=
EXTT9=
EXTT10=
EXTT11=
EXTT12=
EXTT13=
EXTT14=
EXTT15=
PLAYORDER=
